<?xml version="1.0" encoding="UTF-8" standalone="no"?>
<!-- Created with Inkscape (http://www.inkscape.org/) -->

<svg
   width="176.99625mm"
   height="104.34822mm"
   viewBox="0 0 176.99625 104.34822"
   version="1.1"
   id="svg1"
   inkscape:version="1.4.2 (f4327f4, 2025-05-13)"
   sodipodi:docname="Widgemo logo.svg"
   xml:space="preserve"
   xmlns:inkscape="http://www.inkscape.org/namespaces/inkscape"
   xmlns:sodipodi="http://sodipodi.sourceforge.net/DTD/sodipodi-0.dtd"
   xmlns="http://www.w3.org/2000/svg"
   xmlns:svg="http://www.w3.org/2000/svg"><sodipodi:namedview
     id="namedview1"
     pagecolor="#505050"
     bordercolor="#eeeeee"
     borderopacity="1"
     inkscape:showpageshadow="0"
     inkscape:pageopacity="0"
     inkscape:pagecheckerboard="0"
     inkscape:deskcolor="#505050"
     inkscape:document-units="mm"
     showguides="true"
     inkscape:zoom="1.1869175"
     inkscape:cx="495.82215"
     inkscape:cy="1955.4855"
     inkscape:window-width="2880"
     inkscape:window-height="1831"
     inkscape:window-x="-9"
     inkscape:window-y="-9"
     inkscape:window-maximized="1"
     inkscape:current-layer="layer1"
     inkscape:export-bgcolor="#ffffff00"><inkscape:page
       x="-7.2197641e-15"
       y="0"
       width="176.99623"
       height="104.34822"
       id="page2"
       margin="0"
       bleed="0" /></sodipodi:namedview><defs
     id="defs1" /><g
     inkscape:label="Layer 1"
     inkscape:groupmode="layer"
     id="layer1"
     transform="translate(-16.229815,-609.88713)"><path
       id="rect2-4-9-0-8"
       style="fill:#308e8d;fill-opacity:1;stroke-width:1.44369"
       d="m 105.38241,662.90145 -4.50153,7.80986 21.82658,39.75571 c 0.37172,0.67708 2.09464,3.78515 6.13916,3.76825 3.62088,0.0151 5.38117,-2.47445 5.97689,-3.48196 l -4.37699,-8.10907 -1.5999,2.90835 z"
       inkscape:export-filename="widgemo_deco_100x59.png"
       inkscape:export-xdpi="14.350588"
       inkscape:export-ydpi="14.350588" /><path
       style="fill:#308e8d;fill-opacity:1;stroke-width:1.543"
       d="m 80.490866,614.69936 -56.52107,-1.67135 2.15361,12.53756 47.33426,84.90159 31.255124,-52.63554 0.14029,-4.54883 z"
       id="path8-7-3-6-4"
       sodipodi:nodetypes="ccccccc" /><path
       id="rect2-7-1-1-1"
       style="fill:#133848;fill-opacity:1;stroke-width:1.44369"
       d="m 24.860186,613.02801 c -0.50431,0.92638 -0.79491,1.97592 -0.8108,3.03134 -0.0329,2.18691 0.50056,3.27428 1.28158,4.69687 l 49.25229,89.7108 c 0.37173,0.67708 2.09463,3.78515 6.13916,3.76825 4.04454,0.0169 5.76744,-3.09117 6.13916,-3.76825 l 24.262604,-44.19369 -2.86339,-6.12055 -2.02727,-0.97255 -25.511104,46.37236 -44.43088,-80.76303 c -0.77585,-1.41029 -1.40612,-2.16476 -1.40612,-4.25607 0,-1.85625 1.93309,-3.22151 3.94395,-3.22151 h 8.95966 l -3.64784,-4.28397 z" /><path
       style="fill:#d26b3e;fill-opacity:1;stroke-width:1.543"
       d="m 137.20528,614.69922 50.69998,-1.67135 -2.15361,12.53756 -47.33404,84.90159 -25.43412,-52.63554 -0.14029,-4.54883 z"
       id="path8-9-3-4"
       sodipodi:nodetypes="ccccccc" /><path
       id="rect2-2-8-8-3"
       style="fill:#b34f2f;fill-opacity:1;stroke-width:1.44369"
       d="m 155.92817,613.02801 -24.54372,1.67121 c -1.82876,2.28666 -2.87299,5.54464 -5.37376,10.09034 l -18.17771,33.04191 3.2912,8.44186 -0.0305,0.39636 1.63918,-2.98586 25.68474,46.78319 4.61212,-7.69049 3.80592,-5.73301 -26.8025,-46.65591 16.26779,-29.63139 c 0.65368,-1.19065 1.58424,-3.44424 8.27081,-3.44424 h 11.7688 z"
       sodipodi:nodetypes="ccscccccccccscc" /><path
       id="rect15-3-1"
       style="fill:#dba045;fill-opacity:1;stroke-width:18"
       d="m 104.59213,647.59588 4.11468,-7.15333 4.47506,7.83585 -4.19542,7.46748 z"
       sodipodi:nodetypes="ccccc" /><path
       id="rect2-6-9-9"
       style="fill:#eed78b;fill-opacity:1;stroke-width:1.44369"
       d="m 21.967856,609.88711 c -3.25531,0 -5.68978,3.06127 -5.7366,6.17224 -0.0329,2.18691 0.50056,3.27428 1.28158,4.69687 l 49.25229,89.7108 c 0.37173,0.67708 2.09463,3.78515 6.13916,3.76825 4.04454,0.0169 5.76744,-3.09117 6.13916,-3.76825 l 25.684224,-46.78319 25.68474,46.78319 c 0.37173,0.67708 2.09462,3.78515 6.13916,3.76825 4.04454,0.0169 5.76744,-3.09117 6.13916,-3.76825 l 49.25229,-89.7108 c 0.78102,-1.42259 1.31448,-2.50996 1.28158,-4.69687 -0.0468,-3.11097 -2.48131,-6.17224 -5.7366,-6.17224 h -50.93643 c -11.5378,0 -12.74568,3.14076 -19.2164,14.90245 0,0 -4.84431,8.80574 -8.62477,15.67751 l 4.36627,8.01042 15.21908,-27.72127 c 0.65368,-1.19065 1.58475,-3.44424 8.27132,-3.44424 h 41.87755 c 2.01087,0 3.94395,1.36526 3.94395,3.22151 0,2.09131 -0.63026,2.84578 -1.40612,4.25607 l -44.43088,80.76303 -44.430884,-80.76303 c -6.50194,-11.81893 -7.67754,-14.82871 -19.2164,-14.90245 z m 9.04338,7.42487 h 41.89305 c 6.94715,0 7.63985,2.32226 8.25583,3.44424 l 19.177124,34.93068 -27.432954,49.86569 -44.43088,-80.76303 c -0.77585,-1.41029 -1.40611,-2.16476 -1.40611,-4.25607 0,-1.85625 1.93308,-3.22151 3.94394,-3.22151 z"
       sodipodi:nodetypes="sssccsccccssssccccsssccscsssccccss" /><path
       id="rect15-3"
       style="fill:#dba045;fill-opacity:1;stroke-width:18"
       d="m 96.484289,662.51605 3.866601,-6.83996 4.42284,8.13616 -3.82983,6.82769 z"
       sodipodi:nodetypes="ccccc" /></g></svg>
